<mxfile host="65bd71144e">
    <diagram id="yQmp7Sz9Q2EkCWFIzhpP" name="Page-1">
        <mxGraphModel dx="1597" dy="445" grid="1" gridSize="10" guides="1" tooltips="1" connect="1" arrows="1" fold="1" page="1" pageScale="1" pageWidth="850" pageHeight="1100" background="#ffffff" math="0" shadow="0">
            <root>
                <mxCell id="0"/>
                <mxCell id="1" parent="0"/>
                <mxCell id="28" value="" style="rounded=0;whiteSpace=wrap;html=1;fillColor=none;strokeColor=#000000;" vertex="1" parent="1">
                    <mxGeometry x="970" y="100" width="800" height="840" as="geometry"/>
                </mxCell>
                <mxCell id="2" value="" style="shape=umlLifeline;participant=umlActor;perimeter=lifelinePerimeter;whiteSpace=wrap;html=1;container=0;collapsible=0;recursiveResize=0;verticalAlign=top;spacingTop=36;outlineConnect=0;strokeWidth=2;strokeColor=#82b366;fillColor=#d5e8d4;" vertex="1" parent="1">
                    <mxGeometry x="-630" y="130" width="20" height="1190" as="geometry"/>
                </mxCell>
                <mxCell id="3" value="&lt;b&gt;Software&lt;/b&gt;&lt;br&gt;( Client Side )&amp;nbsp;" style="shape=umlLifeline;perimeter=lifelinePerimeter;whiteSpace=wrap;html=1;container=0;collapsible=0;recursiveResize=0;outlineConnect=0;strokeColor=#b85450;strokeWidth=2;fillColor=#f8cecc;fontColor=#000000;" vertex="1" parent="1">
                    <mxGeometry x="-510" y="130" width="100" height="1190" as="geometry"/>
                </mxCell>
                <mxCell id="5" value="&lt;b&gt;API&lt;/b&gt;&lt;br&gt;( Server Side )" style="shape=umlLifeline;perimeter=lifelinePerimeter;whiteSpace=wrap;html=1;container=0;collapsible=0;recursiveResize=0;outlineConnect=0;strokeColor=#9673a6;strokeWidth=2;fillColor=#e1d5e7;fontColor=#000000;" vertex="1" parent="1">
                    <mxGeometry x="-350" y="130" width="100" height="1190" as="geometry"/>
                </mxCell>
                <mxCell id="7" value="&lt;b&gt;Python process&lt;/b&gt;&lt;br&gt;( pytube )" style="shape=umlLifeline;perimeter=lifelinePerimeter;whiteSpace=wrap;html=1;container=0;collapsible=0;recursiveResize=0;outlineConnect=0;strokeColor=#10739e;strokeWidth=2;fillColor=#b1ddf0;fontColor=#000000;" vertex="1" parent="1">
                    <mxGeometry x="-190" y="130" width="100" height="1190" as="geometry"/>
                </mxCell>
                <mxCell id="19" value="Like / Unlike Media - Sequences Diagram" style="text;align=center;fontStyle=1;verticalAlign=middle;spacingLeft=3;spacingRight=3;strokeColor=none;rotatable=0;points=[[0,0.5],[1,0.5]];portConstraint=eastwest;fontColor=#000000;fontSize=25;" vertex="1" parent="1">
                    <mxGeometry x="-420" y="60" width="80" height="26" as="geometry"/>
                </mxCell>
                <mxCell id="23" value="" style="html=1;points=[];perimeter=orthogonalPerimeter;strokeColor=#82b366;strokeWidth=2;fillColor=#d5e8d4;" vertex="1" parent="1">
                    <mxGeometry x="-625" y="250" width="10" height="40" as="geometry"/>
                </mxCell>
                <mxCell id="4" value="" style="html=1;points=[];perimeter=orthogonalPerimeter;strokeColor=#ae4132;strokeWidth=2;fillColor=#fad9d5;" vertex="1" parent="1">
                    <mxGeometry x="-465" y="250" width="10" height="320" as="geometry"/>
                </mxCell>
                <mxCell id="25" value="&lt;b&gt;Insert &lt;/b&gt;new liked&lt;br&gt;media into local data&lt;br&gt;( &lt;b&gt;&lt;i&gt;name&lt;/i&gt;&lt;/b&gt;, &lt;b&gt;&lt;i&gt;path&lt;/i&gt;&lt;/b&gt; )" style="html=1;verticalAlign=bottom;endArrow=block;fontColor=#000000;labelBackgroundColor=#FFFFFF;strokeWidth=2;fillColor=#f8cecc;strokeColor=#b85450;" edge="1" parent="1">
                    <mxGeometry x="0.0167" y="25" width="80" relative="1" as="geometry">
                        <mxPoint x="-455" y="289" as="sourcePoint"/>
                        <mxPoint x="-455" y="329" as="targetPoint"/>
                        <Array as="points">
                            <mxPoint x="-415" y="289"/>
                            <mxPoint x="-415" y="329"/>
                        </Array>
                        <mxPoint as="offset"/>
                    </mxGeometry>
                </mxCell>
                <mxCell id="13" value="&lt;b&gt;Like&amp;nbsp;&lt;/b&gt;media" style="html=1;verticalAlign=bottom;endArrow=block;fontColor=#000000;labelBackgroundColor=none;strokeWidth=2;fillColor=#d5e8d4;gradientColor=#97d077;strokeColor=#82b366;" edge="1" parent="1" target="3">
                    <mxGeometry width="80" relative="1" as="geometry">
                        <mxPoint x="-615" y="250" as="sourcePoint"/>
                        <mxPoint x="-535" y="250" as="targetPoint"/>
                    </mxGeometry>
                </mxCell>
                <mxCell id="20" value="&lt;b&gt;&lt;font style=&quot;font-size: 20px&quot;&gt;Alt&lt;/font&gt;&lt;/b&gt;" style="shape=umlFrame;tabWidth=110;tabHeight=30;tabPosition=left;html=1;boundedLbl=1;labelInHeader=1;width=140;height=30;fillColor=none;strokeColor=#4D4D4D;strokeWidth=2;fontColor=#000000;" vertex="1" parent="1">
                    <mxGeometry x="-800" y="370" width="540" height="250" as="geometry"/>
                </mxCell>
                <mxCell id="21" value="[ if the customer &#10;cannot like media ]" style="text;fontColor=#000000;fontSize=15;" vertex="1" parent="20">
                    <mxGeometry width="100" height="20" relative="1" as="geometry">
                        <mxPoint x="20" y="40" as="offset"/>
                    </mxGeometry>
                </mxCell>
                <mxCell id="22" value="[ Else ]" style="line;strokeWidth=2;dashed=1;labelPosition=center;verticalLabelPosition=bottom;align=left;verticalAlign=top;spacingLeft=20;spacingTop=15;fontColor=#000000;strokeColor=#4D4D4D;labelBackgroundColor=none;fontSize=15;" vertex="1" parent="20">
                    <mxGeometry y="115" width="540" height="10" as="geometry"/>
                </mxCell>
                <mxCell id="27" value="&lt;b&gt;Display&amp;nbsp; error&lt;/b&gt;&lt;br&gt;&quot;&lt;i&gt;Cannot like this media&lt;/i&gt;&quot;" style="html=1;verticalAlign=bottom;endArrow=block;fontColor=#000000;labelBackgroundColor=#FFFFFF;strokeWidth=2;fillColor=#f8cecc;strokeColor=#b85450;" edge="1" parent="20">
                    <mxGeometry y="35" width="80" relative="1" as="geometry">
                        <mxPoint x="345" y="40" as="sourcePoint"/>
                        <mxPoint x="345" y="79.99999999999989" as="targetPoint"/>
                        <Array as="points">
                            <mxPoint x="385" y="40"/>
                            <mxPoint x="385" y="80"/>
                        </Array>
                        <mxPoint as="offset"/>
                    </mxGeometry>
                </mxCell>
                <mxCell id="26" value="&lt;b&gt;Display&amp;nbsp;&lt;br&gt;&quot;&lt;/b&gt;&lt;i&gt;Already Liked&lt;/i&gt;&quot;&amp;nbsp;&lt;br&gt;button style" style="html=1;verticalAlign=bottom;endArrow=block;fontColor=#000000;labelBackgroundColor=#FFFFFF;strokeWidth=2;fillColor=#f8cecc;strokeColor=#b85450;" edge="1" parent="20">
                    <mxGeometry y="15" width="80" relative="1" as="geometry">
                        <mxPoint x="345.0000000000002" y="160" as="sourcePoint"/>
                        <mxPoint x="345" y="200" as="targetPoint"/>
                        <Array as="points">
                            <mxPoint x="385" y="160"/>
                            <mxPoint x="385" y="200"/>
                        </Array>
                        <mxPoint as="offset"/>
                    </mxGeometry>
                </mxCell>
                <mxCell id="29" value="" style="html=1;points=[];perimeter=orthogonalPerimeter;strokeColor=#82b366;strokeWidth=2;fillColor=#d5e8d4;" vertex="1" parent="1">
                    <mxGeometry x="-625" y="680" width="10" height="40" as="geometry"/>
                </mxCell>
                <mxCell id="30" value="" style="html=1;points=[];perimeter=orthogonalPerimeter;strokeColor=#ae4132;strokeWidth=2;fillColor=#fad9d5;" vertex="1" parent="1">
                    <mxGeometry x="-465" y="680" width="10" height="320" as="geometry"/>
                </mxCell>
                <mxCell id="31" value="&lt;b&gt;Remove &lt;br&gt;&lt;/b&gt;&lt;i&gt;media from likes&lt;/i&gt;" style="html=1;verticalAlign=bottom;endArrow=block;fontColor=#000000;labelBackgroundColor=#FFFFFF;strokeWidth=2;fillColor=#f8cecc;strokeColor=#b85450;" edge="1" parent="1">
                    <mxGeometry x="0.0167" y="25" width="80" relative="1" as="geometry">
                        <mxPoint x="-455" y="719" as="sourcePoint"/>
                        <mxPoint x="-455" y="759" as="targetPoint"/>
                        <Array as="points">
                            <mxPoint x="-415" y="719"/>
                            <mxPoint x="-415" y="759"/>
                        </Array>
                        <mxPoint as="offset"/>
                    </mxGeometry>
                </mxCell>
                <mxCell id="32" value="&lt;b&gt;Unlike&amp;nbsp;&lt;/b&gt;media" style="html=1;verticalAlign=bottom;endArrow=block;fontColor=#000000;labelBackgroundColor=none;strokeWidth=2;fillColor=#d5e8d4;gradientColor=#97d077;strokeColor=#82b366;" edge="1" parent="1">
                    <mxGeometry width="80" relative="1" as="geometry">
                        <mxPoint x="-615" y="680" as="sourcePoint"/>
                        <mxPoint x="-461" y="680" as="targetPoint"/>
                    </mxGeometry>
                </mxCell>
                <mxCell id="33" value="&lt;b&gt;&lt;font style=&quot;font-size: 20px&quot;&gt;Alt&lt;/font&gt;&lt;/b&gt;" style="shape=umlFrame;tabWidth=110;tabHeight=30;tabPosition=left;html=1;boundedLbl=1;labelInHeader=1;width=140;height=30;fillColor=none;strokeColor=#4D4D4D;strokeWidth=2;fontColor=#000000;" vertex="1" parent="1">
                    <mxGeometry x="-800" y="800" width="540" height="250" as="geometry"/>
                </mxCell>
                <mxCell id="34" value="[ if the customer &#10;cannot unlike media ]" style="text;fontColor=#000000;fontSize=15;" vertex="1" parent="33">
                    <mxGeometry width="100" height="20" relative="1" as="geometry">
                        <mxPoint x="20" y="40" as="offset"/>
                    </mxGeometry>
                </mxCell>
                <mxCell id="35" value="[ Else ]" style="line;strokeWidth=2;dashed=1;labelPosition=center;verticalLabelPosition=bottom;align=left;verticalAlign=top;spacingLeft=20;spacingTop=15;fontColor=#000000;strokeColor=#4D4D4D;labelBackgroundColor=none;fontSize=15;" vertex="1" parent="33">
                    <mxGeometry y="115" width="540" height="10" as="geometry"/>
                </mxCell>
                <mxCell id="36" value="&lt;b&gt;Display&amp;nbsp; error&lt;/b&gt;&lt;br&gt;&quot;&lt;i&gt;Cannot unlike this media&lt;/i&gt;&quot;" style="html=1;verticalAlign=bottom;endArrow=block;fontColor=#000000;labelBackgroundColor=#FFFFFF;strokeWidth=2;fillColor=#f8cecc;strokeColor=#b85450;" edge="1" parent="33">
                    <mxGeometry y="35" width="80" relative="1" as="geometry">
                        <mxPoint x="345" y="40" as="sourcePoint"/>
                        <mxPoint x="345" y="79.99999999999989" as="targetPoint"/>
                        <Array as="points">
                            <mxPoint x="385" y="40"/>
                            <mxPoint x="385" y="80"/>
                        </Array>
                        <mxPoint as="offset"/>
                    </mxGeometry>
                </mxCell>
                <mxCell id="37" value="&lt;b&gt;Display&amp;nbsp;&lt;br&gt;&quot;&lt;/b&gt;&lt;i&gt;unliked&lt;/i&gt;&quot;&amp;nbsp;&lt;br&gt;button style" style="html=1;verticalAlign=bottom;endArrow=block;fontColor=#000000;labelBackgroundColor=#FFFFFF;strokeWidth=2;fillColor=#f8cecc;strokeColor=#b85450;" edge="1" parent="33">
                    <mxGeometry y="15" width="80" relative="1" as="geometry">
                        <mxPoint x="345.0000000000002" y="160" as="sourcePoint"/>
                        <mxPoint x="345" y="200" as="targetPoint"/>
                        <Array as="points">
                            <mxPoint x="385" y="160"/>
                            <mxPoint x="385" y="200"/>
                        </Array>
                        <mxPoint as="offset"/>
                    </mxGeometry>
                </mxCell>
            </root>
        </mxGraphModel>
    </diagram>
</mxfile>